<svg width="109" height="43" viewBox="0 0 109 43" fill="none" xmlns="http://www.w3.org/2000/svg">
<path d="M56.2243 31.6431V39.4183C56.2243 40.8405 55.0714 41.9934 53.6492 41.9934C52.227 41.9934 51.0741 40.8405 51.0741 39.4183V31.8931L44.3552 17.7396C43.5512 16.046 44.7863 14.0924 46.6611 14.0924C47.6463 14.0924 48.5435 14.6594 48.9665 15.5492L53.5742 25.2428L56.4175 19.2043C57.8867 16.0839 61.0256 14.0924 64.4746 14.0924L56.2243 31.6431Z" fill="#1B1C57"/>
<path d="M69.5275 18.9926V27.2929H71.9276C73.0776 27.2929 74.0777 26.8929 74.8777 26.0929C75.6777 25.2928 76.0777 24.2928 76.0777 23.1428C76.0777 22.0427 75.6777 21.0427 74.8777 20.1927C74.0777 19.3926 73.0776 18.9926 71.9276 18.9926H69.5275ZM69.5275 13.8424V13.8924H71.9276C74.4777 13.8924 76.7778 14.8425 78.4778 16.5925C80.1779 18.3926 81.2279 20.5927 81.2279 23.1428C81.2279 25.6928 80.2279 27.9429 78.4778 29.693C76.7278 31.443 74.4777 32.4431 71.9276 32.4431H69.5275V36.8932C69.5275 39.71 67.2441 41.9934 64.4273 41.9934V18.9426C64.4273 16.1259 66.7108 13.8424 69.5275 13.8424Z" fill="#1B1C57"/>
<path d="M95.1995 25.3428L97.8496 30.793H92.6494L95.1995 25.3428ZM100.927 36.9688C102.441 40.045 105.571 41.9934 109 41.9934L97.4496 18.5426C96.5011 16.6052 93.7237 16.6436 92.7994 18.5926L83.4537 38.3835C82.6613 40.0616 83.8854 41.9934 85.7412 41.9934C86.7225 41.9934 87.6152 41.4259 88.0317 40.5374L90.3493 35.5932H100.25L100.927 36.9688Z" fill="#1B1C57"/>
<path fill-rule="evenodd" clip-rule="evenodd" d="M35.0587 8.25991L33.23 9.23327L29.9445 3.06062C29.7428 2.68184 29.2723 2.53821 28.8935 2.73983C28.5148 2.94145 28.3711 3.41196 28.5727 3.79075L31.8583 9.96339L30.029 10.937C29.524 11.2058 29.3325 11.8332 29.6013 12.3382L29.8446 12.7952L29.8444 12.7953C29.5919 12.9297 29.4961 13.2434 29.6305 13.4959L37.4036 9.35858C37.2692 9.10612 36.9556 9.01035 36.7031 9.14462L36.4599 8.68764C36.1911 8.18259 35.5637 7.99108 35.0587 8.25991Z" fill="#1B1C57"/>
<path fill-rule="evenodd" clip-rule="evenodd" d="M30.716 14.0205H30.6021H25.7714L22.22 13.9622L19.5373 19.2693L13.0054 32.0415L8.49552 19.9235C7.17468 16.3745 3.78686 14.0205 0 14.0205L9.73949 40.2646C10.6569 42.726 14.0786 42.8922 15.2799 40.5562L22.22 26.9676L29.1602 40.5562C30.3615 42.8922 33.7832 42.726 34.7006 40.2646L42.3423 19.917C43.4128 17.0665 41.3079 14.0246 38.2643 14.0205C38.5607 15.0399 38.7452 16.0933 38.8115 17.162C38.9707 19.7289 38.4423 22.2918 37.2807 24.5864C36.119 26.881 34.3663 28.8241 32.2033 30.2154C30.0402 31.6066 28.9966 32.1071 26.4269 32.2125L23.017 25.9611C24.352 25.9063 27.3219 25.096 28.4456 24.3733C29.5693 23.6505 30.4799 22.641 31.0833 21.449C31.6868 20.257 31.9613 18.9255 31.8786 17.592C31.7998 16.3212 31.3992 15.0924 30.716 14.0205Z" fill="#1B1C57"/>
<path d="M26.9951 26.2454L27.3789 27.2824L28.4159 27.6662L27.3789 28.0499L26.9951 29.0869L26.6114 28.0499L25.5743 27.6662L26.6114 27.2824L26.9951 26.2454Z" fill="#1B1C57"/>
<path d="M32.1106 26.8137L32.3408 27.4359L32.9631 27.6662L32.3408 27.8964L32.1106 28.5187L31.8803 27.8964L31.2581 27.6662L31.8803 27.4359L32.1106 26.8137Z" fill="#1B1C57"/>
<path d="M30.1206 24.5405L30.2741 24.9553L30.6889 25.1088L30.2741 25.2623L30.1206 25.6772L29.9671 25.2623L29.5522 25.1088L29.9671 24.9553L30.1206 24.5405Z" fill="#1B1C57"/>
</svg>
