<svg width="96" height="31" viewBox="0 0 96 31" fill="none" xmlns="http://www.w3.org/2000/svg">
<path d="M4.83426 2.61644H1.03782L9.34412 19.2036L11.2551 15.3816L4.83426 2.61644ZM30.4411 2.61644L24.0458 15.3816L19.5359 6.41288L17.6249 10.2348L24.0458 23L34.2375 2.61644H30.4411ZM48.939 12.8082L56.8886 2.61644H52.5826L46.7732 10.0564L40.9894 2.61644H36.6324L44.633 12.8082L36.6324 23H40.9894L46.7732 15.56V15.5855L48.939 12.8082ZM46.7732 15.56L40.9894 23L46.7732 15.5855V15.56ZM73.7227 4.60384C72.3978 3.2789 70.7926 2.61644 68.9326 2.61644H58.7408L62.1296 6.03069H68.9326C69.8499 6.03069 70.6397 6.36192 71.3022 7.02438C71.9901 7.68685 72.3214 8.50219 72.3214 9.41945C72.3214 10.3622 71.9647 11.1521 71.3022 11.8145C70.6397 12.477 69.8499 12.8082 68.9326 12.8082H62.1296H58.7408V23H62.1296V16.2225H68.9326C70.7926 16.2225 72.3978 15.56 73.7227 14.2351C75.0731 12.9101 75.7101 11.2795 75.7101 9.41945C75.7101 7.55945 75.0477 5.95425 73.7227 4.60384ZM79.5048 16.2225L82.5113 10.2348L85.4924 16.2225H89.3144L82.5113 2.61644L72.3196 23H76.0905L77.8231 19.5858L79.5048 16.2225ZM90.996 19.6112H87.225L88.9067 23H92.7031L90.996 19.6112Z" fill="white"/>
</svg>
