<svg width="86" height="28" viewBox="0 0 86 28" fill="none" xmlns="http://www.w3.org/2000/svg">
<path d="M4.99135 2.27845H1.62877L8.98583 16.97L10.6784 13.5848L4.99135 2.27845ZM27.6719 2.27845L22.0074 13.5848L18.0129 5.64103L16.3203 9.02618L22.0074 20.3326L31.0344 2.27845H27.6719ZM44.0558 11.3055L51.0969 2.27845H47.283L42.1375 8.86821L37.0147 2.27845H33.1556L40.2419 11.3055L33.1556 20.3326H37.0147L42.1375 13.7428V13.7654L44.0558 11.3055ZM42.1375 13.7428L37.0147 20.3326L42.1375 13.7654V13.7428ZM66.0073 4.03873C64.8337 2.86521 63.412 2.27845 61.7645 2.27845H52.7375L55.739 5.30252H61.7645C62.577 5.30252 63.2766 5.5959 63.8633 6.18266C64.4727 6.76942 64.766 7.49158 64.766 8.30402C64.766 9.13902 64.4501 9.83862 63.8633 10.4254C63.2766 11.0121 62.577 11.3055 61.7645 11.3055H55.739H52.7375V20.3326H55.739V14.3296H61.7645C63.412 14.3296 64.8337 13.7428 66.0073 12.5693C67.2033 11.3958 67.7675 9.95146 67.7675 8.30402C67.7675 6.65658 67.1808 5.23481 66.0073 4.03873ZM71.1285 14.3296L73.7915 9.02618L76.4319 14.3296H79.8171L73.7915 2.27845L64.7644 20.3326H68.1045L69.6391 17.3085L71.1285 14.3296ZM81.3065 17.3311H77.9665L79.456 20.3326H82.8186L81.3065 17.3311Z" fill="#292929"/>
</svg>
