<svg width="28" height="49" viewBox="0 0 28 49" fill="none" xmlns="http://www.w3.org/2000/svg">
<path d="M12.7174 48.9846C12.9972 48.9846 12.935 43.6583 14.7851 36.9505C15.8734 33.0057 16.5886 30.519 18.8118 28.324C21.9367 25.2387 26.0722 24.6861 28 24.5634C26.4919 23.9954 24.2066 22.8902 22.1388 20.7566C19.2004 17.7021 18.392 14.2637 17.5214 10.5031C16.9617 8.07782 16.3865 4.486 16.6197 0.0346045C16.6663 -0.717529 16.1532 10.9789 9.37479 16.8271C6.17213 19.5901 2.33204 20.3575 4.78624e-07 20.6338C2.2543 21.3246 6.07884 22.9056 8.53526 26.5435C9.59245 28.1245 10.3076 29.7208 10.8828 33.7578C12.1266 42.5224 12.3909 48.9847 12.7485 49L12.7174 48.9846Z" fill="#1195FF"/>
</svg>
